<mxfile host="65bd71144e">
    <diagram id="zK3OZOMUzoGfoZtY-BYz" name="Page-1">
        <mxGraphModel dx="1243" dy="680" grid="1" gridSize="10" guides="1" tooltips="1" connect="1" arrows="1" fold="1" page="1" pageScale="1" pageWidth="827" pageHeight="1169" math="0" shadow="0">
            <root>
                <mxCell id="0"/>
                <mxCell id="1" parent="0"/>
                <mxCell id="2" value="Task" style="shape=umlFrame;whiteSpace=wrap;html=1;" vertex="1" parent="1">
                    <mxGeometry x="170" y="50" width="300" height="200" as="geometry"/>
                </mxCell>
                <mxCell id="3" value="TaskManager" style="shape=umlFrame;whiteSpace=wrap;html=1;width=110;height=40;" vertex="1" parent="1">
                    <mxGeometry x="580" y="400" width="440" height="200" as="geometry"/>
                </mxCell>
            </root>
        </mxGraphModel>
    </diagram>
</mxfile>
